<?xml version="1.0" encoding="UTF-8"?>
<svg xmlns="http://www.w3.org/2000/svg" xmlns:xlink="http://www.w3.org/1999/xlink" width="190px" height="43px" viewBox="0 0 190 43" version="1.1">
  <!-- Generator: Sketch 54.1 (76490) - https://sketchapp.com -->
  <title>logo_hesso_master</title>
  <desc>Created with Sketch.</desc>
  <g id="Symbols" stroke="none" stroke-width="1" fill="none" fill-rule="evenodd">
    <g id="logo_hesso_master" fill="#1C2E36">
      <path d="M145.647267,24.2228486 C148.106608,24.9802044 153.699187,26.7903108 153.699187,32.9766845 C153.699187,35.3112142 152.777418,37.9359335 150.257401,39.8631568 C146.998936,42.4891774 142.635382,42.6635514 140.422621,42.6635514 C137.104771,42.6635514 134.338174,42.0805696 132.00406,41.2047956 C131.696803,41.0889801 131.388256,40.9718632 131.081,40.8547463 L130.775035,40.3290217 C131.020323,38.0530504 131.020323,37.7602582 131.142968,35.4270298 L131.75748,35.2526558 C132.863861,36.06857 135.56849,38.0530504 140.301268,38.0530504 C145.155399,38.0530504 146.93826,35.4855882 146.93826,33.6767831 C146.93826,30.9922041 144.296889,30.1177314 140.546556,28.9491652 L138.580375,28.307625 C136.059067,27.5489679 130.528455,25.8572797 130.528455,19.8478827 C130.528455,13.835883 136.059067,10.8598131 142.942638,10.8598131 C147.493386,10.8598131 150.687302,12.0856364 151.793682,12.4929429 L152.102229,12.9028519 C151.856941,15.060405 151.793682,15.2933375 151.607779,17.5120516 L151.056526,17.7449841 C149.518954,16.8106517 147.122872,15.4104544 143.12725,15.4104544 C142.267449,15.4104544 141.406357,15.4690128 140.484589,15.7032466 C138.641052,16.1691115 137.104771,17.3949348 137.104771,19.2037398 C137.104771,21.7139449 139.623497,22.472602 143.437088,23.5800071 L145.647267,24.2228486 Z" id="Fill-1"></path>
      <path d="M189.498931,26.4890823 C189.374366,22.3997111 188.572473,18.3077335 185.730814,15.2113836 C183.012424,12.2883563 178.873205,11.0034233 174.673,11.0034233 C168.494014,11.0034233 164.914044,13.3999668 163.1818,15.0940976 C159.045175,19.0101462 158.920609,24.7376117 158.920609,26.9569231 C158.920609,28.8856259 158.982892,34.8463601 163.1818,38.8783915 C165.157985,40.8083975 168.679566,42.7957433 174.238317,42.7957433 C178.564385,42.7957433 182.209234,41.8014188 184.927624,39.2289462 C186.966092,37.3015466 188.261058,35.022289 188.939683,32.1592079 C189.374366,30.4064341 189.498931,28.4764281 189.498931,26.4890823 M182.765887,26.7236543 C182.826873,27.9499444 182.765887,31.8672961 181.342463,34.4958053 C179.553127,37.7107444 176.5882,38.4118539 174.303195,38.4118539 C173.065322,38.4118539 171.767761,38.1772819 170.655751,37.6521014 C165.776922,35.3142008 165.714639,29.4108064 165.714639,27.074209 C165.714639,24.6203257 165.901487,21.2307608 167.570151,18.8342173 C169.731887,15.5619384 173.191185,15.4446524 174.36418,15.4446524 C177.823478,15.4446524 179.799663,16.9641575 180.973956,18.7755743 C182.518053,21.3480468 182.765887,25.2627922 182.765887,26.7236543" id="Fill-3"></path>
      <path d="M122.804878,26.3738318 C122.804878,28.5156313 121.075353,30.2523364 118.942408,30.2523364 C116.809463,30.2523364 115.081301,28.5156313 115.081301,26.3738318 C115.081301,24.2334008 116.809463,22.4953271 118.942408,22.4953271 C121.075353,22.4953271 122.804878,24.2334008 122.804878,26.3738318" id="Fill-6"></path>
      <path d="M37.8805472,0.860623733 C37.8188358,5.40726548 37.7558114,8.18079592 37.7558114,12.3127903 C37.7558114,22.2287869 37.9435715,32.0881808 38.4438276,42.0041774 L38.1300187,42.3582731 C32.8175878,42.2990378 31.5676041,42.3582731 26.878852,42.5359792 L26.5663561,42.1805671 C26.878852,33.8586594 26.878852,31.9104748 26.7541163,23.9426628 C24.2541488,23.8834275 21.7541813,23.8241921 19.2529008,23.8241921 C16.8159577,23.8241921 14.5024374,23.8834275 11.7529984,24.0005818 C11.8147098,32.5594309 11.8764211,34.6853216 12.2519415,42.0041774 L11.9394455,42.3582731 C6.44056748,42.2990378 5.3140065,42.3582731 0.751303252,42.5359792 L0.437494309,42.1805671 C0.563543089,37.2245433 0.688278862,34.3325422 0.688278862,29.0184736 C0.688278862,14.3807619 0.312758537,7.11850875 0.000262601626,1.03701342 L0.375782927,0.6829177 C5.8142626,0.6829177 6.75175041,0.6829177 11.5652382,0.506528009 L11.8764211,0.860623733 L11.7529984,16.4447846 C13.9404699,16.4447846 16.1896528,16.5040199 18.3771244,16.5040199 C21.1909008,16.5040199 23.9403398,16.4447846 26.6910919,16.3855492 C26.6306935,9.41947278 26.6306935,7.70822951 26.1908358,1.03701342 L26.5046447,0.6829177 C31.7553642,0.6829177 32.5668033,0.6829177 37.5680512,0.506528009 L37.8805472,0.860623733 Z" id="Fill-8"></path>
      <path d="M74.0660777,33.2554728 C71.6883798,34.4318105 68.8732381,35.7838775 64.3096345,35.7838775 C60.5578637,35.7838775 57.9923145,34.6665534 56.4921316,32.548621 C55.5541889,31.3145812 55.3676513,30.1382435 55.116745,28.9605944 L75.316668,28.6091357 L75.6910569,28.1973519 C75.6306292,25.316177 75.5675743,22.3746771 74.6926865,19.4344886 C72.5028399,12.4944897 67.6857028,11.083409 65.5602248,10.6126117 C63.9969869,10.2021393 62.5585454,10.0841121 61.1201038,10.0841121 C51.3006056,10.0841121 44.796748,16.1415299 44.796748,26.3154739 C44.796748,29.0786216 45.2985605,31.9597965 46.2982445,34.0200267 C49.9265327,41.9580111 58.4323856,42.6635514 62.9342479,42.6635514 C68.1244603,42.6635514 70.3773619,41.7809703 73.6903752,40.5469304 L74.0660777,40.0761331 L74.5035216,33.4325136 L74.0660777,33.2554728 Z M55.116745,22.7274472 C55.3032827,20.9045828 55.7407265,18.4351917 58.1184244,17.024111 C58.8698295,16.5533137 59.7460309,16.3762729 60.6209186,16.3762729 C62.6846553,16.3762729 63.9339319,17.3768812 64.6222821,18.4351917 C65.4984834,19.7295566 65.5602248,21.1393258 65.5602248,22.4927043 L55.116745,22.7274472 Z" id="Fill-11"></path>
      <path d="M100.000986,22.7274472 C103.389187,23.9641099 108.130081,25.6689472 108.130081,32.1368373 C108.130081,32.548621 108.130081,32.9590934 108.065421,33.4325136 C106.958436,41.8399839 97.7249426,42.6635514 93.0448287,42.6635514 C88.5522297,42.6635514 85.9645237,41.7232681 82.9474731,40.6636462 L82.6422764,40.1351467 C82.8879856,37.1949582 82.9474731,36.5484314 83.0729142,33.4902158 L83.6251133,33.2554728 C84.5471694,33.9610131 85.0424675,34.3727969 86.0899647,34.9012964 C88.3660079,36.0186205 90.8903468,36.5484314 92.6141909,36.5484314 C96.060586,36.5484314 97.4779402,34.96031 97.4779402,33.4902158 C97.4779402,31.3722834 94.7673796,30.4897022 93.1069026,29.9625141 L90.766199,29.1376352 C87.8732963,28.0793247 82.7638378,26.1974467 82.7638378,19.9052859 C82.7638378,17.5526106 83.6251133,15.7887598 84.425608,14.7291379 C87.6275871,10.3188551 93.6616881,10.0841121 96.6774454,10.0841121 C100.679919,10.0841121 103.204258,10.7883411 106.094574,11.5542064 L106.404944,11.9056651 L105.789378,18.3171645 L105.234592,18.4942053 C103.69697,17.5526106 101.294192,16.0248142 97.5400141,16.0248142 C93.7224688,16.0248142 93.2297572,17.9643943 93.2297572,18.6699347 C93.2297572,20.3170697 94.8915274,20.962285 96.9852286,21.6678253 L100.000986,22.7274472 Z" id="Fill-13"></path>
    </g>
  </g>
</svg>
