<svg xmlns="http://www.w3.org/2000/svg" width="256" height="256" preserveAspectRatio="xMidYMid"><path fill="#1a1918" d="M255.879 127.868c0 70.455-57.11 127.565-127.566 127.565-70.45 0-127.566-57.11-127.566-127.565C.747 57.418 57.863.302 128.313.302c70.456 0 127.566 57.116 127.566 127.566"/><path fill="#fff" d="m130.46 78.229 33.012 81.476-49.864-39.278L130.46 78.23Zm58.645 100.245-50.78-122.202c-1.449-3.524-4.347-5.39-7.865-5.39-3.524 0-6.634 1.866-8.083 5.39l-55.733 134.04h19.065l22.062-55.265 65.84 53.19c2.647 2.14 4.558 3.109 7.041 3.109 4.974 0 9.322-3.729 9.322-9.111 0-.876-.31-2.266-.87-3.761z"/></svg>