<svg xmlns="http://www.w3.org/2000/svg" xml:space="preserve" width="800" height="800" viewBox="0 0 25.152 25.152"><g style="fill:#fc0" transform="matrix(.8123 0 0 .8123 2.266 2.338)"><path d="M12.575 13.713c-4.725 0-8.68-1.385-9.761-3.26-.191.332-.304.674-.304 1.027v3.062c0 2.367 4.506 4.283 10.065 4.283 5.559 0 10.066-1.916 10.066-4.283V11.48c0-.354-.113-.695-.305-1.027-1.08 1.875-5.034 3.26-9.761 3.26z" style="fill:#ffb200;fill-opacity:1"/><path d="M12.575 20.039c-4.725 0-8.68-1.391-9.761-3.258-.191.328-.304.668-.304 1.024v3.064c0 2.365 4.506 4.283 10.065 4.283 5.559 0 10.066-1.918 10.066-4.283v-3.064c0-.355-.113-.695-.305-1.023-1.08 1.866-5.034 3.257-9.761 3.257zM22.365 4.334c-.195 1.732-4.496 3.119-9.789 3.119-5.291 0-9.594-1.387-9.789-3.119-.172.316-.277.643-.277.98v3.061c0 2.369 4.506 4.283 10.065 4.283 5.559 0 10.066-1.914 10.066-4.283V5.314c.001-.337-.103-.664-.276-.98Z" style="fill:#ffb200;fill-opacity:1"/><ellipse cx="12.576" cy="3.241" rx="9.807" ry="3.241" style="fill:#ffb200;fill-opacity:1"/></g></svg>