<svg xmlns="http://www.w3.org/2000/svg" id="Layer_1" width="184.33" height="180.36" data-name="Layer 1" version="1.1"><defs id="defs4"><style id="style2">.cls-2{fill:#ed1944}</style></defs><g id="g16" style="opacity:.98"><path id="path8" d="M461.82 215.24h-150a17.17 17.17 0 0 0-17.12 17.12v40.35h41.61v-6.59a9.26 9.26 0 0 1 9.26-9.26h82.53a9.26 9.26 0 0 1 9.26 9.26v6.59H479v-40.35a17.18 17.18 0 0 0-17.18-17.12z" class="cls-2" transform="translate(-294.67 -215.24)"/><path id="path10" d="M437.33 344.72a9.27 9.27 0 0 1-9.26 9.26h-82.53a9.27 9.27 0 0 1-9.26-9.26v-6.59h-41.61v40.34a17.17 17.17 0 0 0 17.12 17.13h150A17.18 17.18 0 0 0 479 378.47v-40.34h-41.67z" class="cls-2" transform="translate(-294.67 -215.24)"/><path id="rect12" d="M0 69.37h41.62v41.62H0z" class="cls-2"/><path id="rect14" d="M142.66 69.37h41.62v41.62h-41.62z" class="cls-2"/></g></svg>